<mxfile host="app.diagrams.net" modified="2021-11-12T06:18:49.871Z" agent="5.0 (Windows NT 10.0; Win64; x64) AppleWebKit/537.36 (KHTML, like Gecko) Chrome/95.0.4638.69 Safari/537.36" etag="fDd4bI-cxIUKvs-6uK0W" version="15.7.0" type="github">
  <diagram id="DBrrbZnpKBcdvgb09It-" name="Page-1">
    <mxGraphModel dx="652" dy="363" grid="1" gridSize="10" guides="1" tooltips="1" connect="1" arrows="1" fold="1" page="1" pageScale="1" pageWidth="827" pageHeight="1169" math="0" shadow="0">
      <root>
        <mxCell id="0" />
        <mxCell id="1" parent="0" />
        <mxCell id="Tq1bY9uCLWnidiRtMoJC-1" value="" style="endArrow=classic;html=1;rounded=0;" edge="1" parent="1">
          <mxGeometry width="50" height="50" relative="1" as="geometry">
            <mxPoint x="350" y="335" as="sourcePoint" />
            <mxPoint x="560" y="335" as="targetPoint" />
          </mxGeometry>
        </mxCell>
        <mxCell id="Tq1bY9uCLWnidiRtMoJC-2" value="" style="endArrow=classic;html=1;rounded=0;" edge="1" parent="1">
          <mxGeometry width="50" height="50" relative="1" as="geometry">
            <mxPoint x="350" y="335" as="sourcePoint" />
            <mxPoint x="350" y="135" as="targetPoint" />
          </mxGeometry>
        </mxCell>
        <mxCell id="Tq1bY9uCLWnidiRtMoJC-3" value="" style="whiteSpace=wrap;html=1;aspect=fixed;" vertex="1" parent="1">
          <mxGeometry x="350" y="175" width="160" height="160" as="geometry" />
        </mxCell>
        <mxCell id="Tq1bY9uCLWnidiRtMoJC-5" value="" style="endArrow=none;html=1;rounded=0;entryX=1;entryY=0;entryDx=0;entryDy=0;exitX=0;exitY=1;exitDx=0;exitDy=0;" edge="1" parent="1" source="Tq1bY9uCLWnidiRtMoJC-3" target="Tq1bY9uCLWnidiRtMoJC-3">
          <mxGeometry width="50" height="50" relative="1" as="geometry">
            <mxPoint x="410" y="255" as="sourcePoint" />
            <mxPoint x="460" y="205" as="targetPoint" />
          </mxGeometry>
        </mxCell>
        <mxCell id="Tq1bY9uCLWnidiRtMoJC-6" value="i" style="text;html=1;strokeColor=none;fillColor=none;align=center;verticalAlign=middle;whiteSpace=wrap;rounded=0;" vertex="1" parent="1">
          <mxGeometry x="500" y="345" width="60" height="30" as="geometry" />
        </mxCell>
        <mxCell id="Tq1bY9uCLWnidiRtMoJC-7" value="j" style="text;html=1;strokeColor=none;fillColor=none;align=center;verticalAlign=middle;whiteSpace=wrap;rounded=0;" vertex="1" parent="1">
          <mxGeometry x="280" y="115" width="60" height="30" as="geometry" />
        </mxCell>
        <mxCell id="Tq1bY9uCLWnidiRtMoJC-8" value="" style="endArrow=classic;html=1;rounded=0;" edge="1" parent="1">
          <mxGeometry width="50" height="50" relative="1" as="geometry">
            <mxPoint x="390" y="155" as="sourcePoint" />
            <mxPoint x="500" y="155" as="targetPoint" />
          </mxGeometry>
        </mxCell>
        <mxCell id="Tq1bY9uCLWnidiRtMoJC-9" value="i 正序" style="text;html=1;strokeColor=none;fillColor=none;align=center;verticalAlign=middle;whiteSpace=wrap;rounded=0;" vertex="1" parent="1">
          <mxGeometry x="404" y="115" width="60" height="30" as="geometry" />
        </mxCell>
        <mxCell id="Tq1bY9uCLWnidiRtMoJC-10" value="" style="rounded=0;whiteSpace=wrap;html=1;fillColor=#ffe6cc;strokeColor=#d79b00;" vertex="1" parent="1">
          <mxGeometry x="370" y="175" width="10" height="130" as="geometry" />
        </mxCell>
        <mxCell id="Tq1bY9uCLWnidiRtMoJC-12" value="" style="ellipse;whiteSpace=wrap;html=1;aspect=fixed;fillColor=#f8cecc;strokeColor=#b85450;" vertex="1" parent="1">
          <mxGeometry x="365" y="230" width="20" height="20" as="geometry" />
        </mxCell>
        <mxCell id="Tq1bY9uCLWnidiRtMoJC-13" value="分割 k&amp;nbsp;" style="text;html=1;strokeColor=none;fillColor=none;align=center;verticalAlign=middle;whiteSpace=wrap;rounded=0;" vertex="1" parent="1">
          <mxGeometry x="200" y="225" width="60" height="30" as="geometry" />
        </mxCell>
        <mxCell id="Tq1bY9uCLWnidiRtMoJC-15" value="" style="endArrow=none;dashed=1;html=1;dashPattern=1 3;strokeWidth=2;rounded=0;entryX=0;entryY=0.5;entryDx=0;entryDy=0;" edge="1" parent="1" target="Tq1bY9uCLWnidiRtMoJC-12">
          <mxGeometry width="50" height="50" relative="1" as="geometry">
            <mxPoint x="260" y="240" as="sourcePoint" />
            <mxPoint x="330" y="215" as="targetPoint" />
          </mxGeometry>
        </mxCell>
        <mxCell id="Tq1bY9uCLWnidiRtMoJC-16" value="" style="shape=curlyBracket;whiteSpace=wrap;html=1;rounded=1;flipH=1;fillColor=#f8cecc;strokeColor=#b85450;strokeWidth=5;rotation=-180;" vertex="1" parent="1">
          <mxGeometry x="345" y="250" width="20" height="50" as="geometry" />
        </mxCell>
        <mxCell id="Tq1bY9uCLWnidiRtMoJC-17" value="f(i, k-1)" style="text;html=1;strokeColor=none;fillColor=none;align=center;verticalAlign=middle;whiteSpace=wrap;rounded=0;" vertex="1" parent="1">
          <mxGeometry x="270" y="260" width="60" height="30" as="geometry" />
        </mxCell>
        <mxCell id="Tq1bY9uCLWnidiRtMoJC-21" value="" style="shape=curlyBracket;whiteSpace=wrap;html=1;rounded=1;flipH=1;strokeWidth=4;fillColor=#d5e8d4;strokeColor=#82b366;rotation=-180;" vertex="1" parent="1">
          <mxGeometry x="345" y="180" width="20" height="50" as="geometry" />
        </mxCell>
        <mxCell id="Tq1bY9uCLWnidiRtMoJC-22" value="f(k+1, j)" style="text;html=1;strokeColor=none;fillColor=none;align=center;verticalAlign=middle;whiteSpace=wrap;rounded=0;" vertex="1" parent="1">
          <mxGeometry x="285" y="185" width="60" height="30" as="geometry" />
        </mxCell>
        <mxCell id="Tq1bY9uCLWnidiRtMoJC-23" value="" style="rounded=0;whiteSpace=wrap;html=1;strokeWidth=1;fillColor=#f8cecc;strokeColor=#b85450;" vertex="1" parent="1">
          <mxGeometry x="440" y="175" width="10" height="65" as="geometry" />
        </mxCell>
        <mxCell id="Tq1bY9uCLWnidiRtMoJC-28" value="" style="endArrow=none;dashed=1;html=1;dashPattern=1 3;strokeWidth=2;rounded=0;entryX=0;entryY=1;entryDx=0;entryDy=0;exitX=1;exitY=0.5;exitDx=0;exitDy=0;" edge="1" parent="1" source="Tq1bY9uCLWnidiRtMoJC-12" target="Tq1bY9uCLWnidiRtMoJC-23">
          <mxGeometry width="50" height="50" relative="1" as="geometry">
            <mxPoint x="390" y="255" as="sourcePoint" />
            <mxPoint x="440" y="205" as="targetPoint" />
          </mxGeometry>
        </mxCell>
        <mxCell id="Tq1bY9uCLWnidiRtMoJC-30" value="" style="endArrow=none;dashed=1;html=1;dashPattern=1 3;strokeWidth=2;rounded=0;entryX=0.5;entryY=1;entryDx=0;entryDy=0;exitX=0.592;exitY=0.999;exitDx=0;exitDy=0;exitPerimeter=0;" edge="1" parent="1" source="Tq1bY9uCLWnidiRtMoJC-3" target="Tq1bY9uCLWnidiRtMoJC-23">
          <mxGeometry width="50" height="50" relative="1" as="geometry">
            <mxPoint x="450" y="345" as="sourcePoint" />
            <mxPoint x="460" y="235" as="targetPoint" />
          </mxGeometry>
        </mxCell>
        <mxCell id="Tq1bY9uCLWnidiRtMoJC-31" value="k+1" style="text;html=1;strokeColor=none;fillColor=none;align=center;verticalAlign=middle;whiteSpace=wrap;rounded=0;" vertex="1" parent="1">
          <mxGeometry x="415" y="345" width="60" height="30" as="geometry" />
        </mxCell>
        <mxCell id="Tq1bY9uCLWnidiRtMoJC-32" value="" style="shape=curlyBracket;whiteSpace=wrap;html=1;rounded=1;flipH=1;strokeColor=#6c8ebf;strokeWidth=5;fillColor=#dae8fc;rotation=-90;" vertex="1" parent="1">
          <mxGeometry x="435" y="50" width="20" height="130" as="geometry" />
        </mxCell>
        <mxCell id="Tq1bY9uCLWnidiRtMoJC-33" value="右边区域未计算" style="text;html=1;strokeColor=none;fillColor=none;align=center;verticalAlign=middle;whiteSpace=wrap;rounded=0;" vertex="1" parent="1">
          <mxGeometry x="397" y="60" width="96" height="30" as="geometry" />
        </mxCell>
        <mxCell id="Tq1bY9uCLWnidiRtMoJC-34" value="f(k+1, j)" style="text;html=1;strokeColor=none;fillColor=none;align=center;verticalAlign=middle;whiteSpace=wrap;rounded=0;" vertex="1" parent="1">
          <mxGeometry x="530" y="195" width="60" height="30" as="geometry" />
        </mxCell>
        <mxCell id="Tq1bY9uCLWnidiRtMoJC-36" value="" style="endArrow=classic;html=1;rounded=0;entryX=1;entryY=0.5;entryDx=0;entryDy=0;fillColor=#e1d5e7;strokeColor=#9673a6;" edge="1" parent="1" target="Tq1bY9uCLWnidiRtMoJC-23">
          <mxGeometry width="50" height="50" relative="1" as="geometry">
            <mxPoint x="530" y="208" as="sourcePoint" />
            <mxPoint x="580" y="160" as="targetPoint" />
          </mxGeometry>
        </mxCell>
        <mxCell id="Tq1bY9uCLWnidiRtMoJC-38" value="" style="shape=flexArrow;endArrow=classic;html=1;rounded=0;endWidth=8.333333333333334;endSize=5.916666666666667;fillColor=#1ba1e2;strokeColor=#006EAF;" edge="1" parent="1">
          <mxGeometry width="50" height="50" relative="1" as="geometry">
            <mxPoint x="385" y="208" as="sourcePoint" />
            <mxPoint x="430" y="208" as="targetPoint" />
            <Array as="points">
              <mxPoint x="410" y="208" />
            </Array>
          </mxGeometry>
        </mxCell>
      </root>
    </mxGraphModel>
  </diagram>
</mxfile>
